<svg width="22" height="22" viewBox="0 0 22 22" fill="none" xmlns="http://www.w3.org/2000/svg">
<g clip-path="url(#clip0_30_13)">
<path d="M22 0H0V22H22V0Z" fill="#005BFF"/>
<path d="M6.11651 7.67047C6.11651 8.98319 5.14399 9.88891 3.81729 9.88891C2.49001 9.88891 1.51807 8.98319 1.51807 7.67047C1.51807 6.35772 2.49059 5.452 3.81729 5.452C5.14459 5.452 6.11651 6.35772 6.11651 7.67047ZM15.0773 7.67047C15.0773 8.98319 14.1048 9.88891 12.7781 9.88891C11.4514 9.88891 10.4789 8.98319 10.4789 7.67047C10.4789 6.35772 11.4514 5.452 12.7781 5.452C14.1048 5.452 15.0773 6.35772 15.0773 7.67047ZM19.7552 7.18461V9.74468H18.6384V7.4211C18.6384 6.75189 18.3228 6.47567 17.7845 6.47567C17.2193 6.47567 16.812 6.79043 16.812 7.69673V9.74468H15.6951V5.58281H16.7991V6.2129H16.8254C17.1013 5.74048 17.5747 5.45142 18.179 5.45142C19.0849 5.452 19.7552 5.9507 19.7552 7.18461ZM6.52387 5.58281V6.52822H8.71791L6.47127 8.8518V9.74468H10.203V8.79924H7.85117L10.0978 6.46225V5.58281H6.52387ZM2.68755 7.67047C2.68755 8.39223 3.13407 8.86524 3.81729 8.86524C4.50051 8.86524 4.94702 8.39282 4.94702 7.67047C4.94702 6.94809 4.50051 6.47567 3.81729 6.47567C3.13407 6.47567 2.68755 6.94809 2.68755 7.67047ZM11.6483 7.67047C11.6483 8.39223 12.0949 8.86524 12.7781 8.86524C13.4613 8.86524 13.9078 8.39282 13.9078 7.67047C13.9078 6.94809 13.4613 6.47567 12.7781 6.47567C12.0949 6.47567 11.6483 6.94809 11.6483 7.67047Z" fill="white"/>
<path d="M15.6652 12.3429V16.3728H14.5837V14.7455H12.8532V16.3728H11.7716V12.3429H12.8532V13.8046H14.5837V12.3429H15.6652ZM9.77458 12.3429V12.9276H9.7493C9.55858 12.5211 9.04924 12.2157 8.40073 12.2157C7.34476 12.2157 6.47938 12.9785 6.47938 14.3514C6.47938 15.7372 7.31923 16.5124 8.40073 16.5124C9.06225 16.5124 9.53305 16.2071 9.7493 15.826H9.77458V16.3728H10.8561V12.3429H9.77458ZM4.04993 12.3051C3.38839 12.3051 2.87965 12.6104 2.61254 13.0933H2.58706C2.62498 12.2033 2.93058 11.8222 3.97354 11.7204L5.58922 11.5677V10.5381L3.79528 10.6777C2.03982 10.8174 1.51807 12.0127 1.51807 13.9194C1.51807 15.61 2.49765 16.5124 3.76981 16.5124C5.02952 16.5124 5.99609 15.61 5.99609 14.3514C5.99609 13.0933 5.11837 12.3051 4.04993 12.3051ZM8.68081 15.5337C8.03155 15.5337 7.61232 15.0508 7.61232 14.3768C7.61232 13.6904 8.03231 13.1945 8.68081 13.1945C9.32931 13.1945 9.77458 13.6774 9.77458 14.3638C9.77458 15.0378 9.32931 15.5337 8.68081 15.5337ZM3.75679 15.5337C3.13374 15.5337 2.64988 15.0632 2.64988 14.3644C2.64988 13.6525 3.13317 13.2329 3.75679 13.2329C4.38044 13.2329 4.86372 13.6525 4.86372 14.3644C4.86372 15.0632 4.38044 15.5337 3.75679 15.5337ZM19.1257 16.3728L17.663 14.4407V16.3728H16.5815V12.3429H17.663V14.0081L19.0116 12.3429H20.3476L18.6934 14.1733L20.4998 16.3722H19.1257V16.3728Z" fill="white"/>
</g>
<defs>
<clipPath id="clip0_30_13">
<rect width="22" height="22" rx="3" fill="white"/>
</clipPath>
</defs>
</svg>
