<svg width="120" height="120" viewBox="0 0 120 120" fill="none" xmlns="http://www.w3.org/2000/svg">
<g clip-path="url(#clip0_2740_19943)">
<rect width="120" height="120" fill="#D2DCDC"/>
<path d="M59.8798 119.424C92.6495 119.424 119.215 92.6899 119.215 59.7119C119.215 26.7339 92.6495 0 59.8798 0C27.1101 0 0.545013 26.7339 0.545013 59.7119C0.545013 92.6899 27.1101 119.424 59.8798 119.424Z" fill="#D2DCDC"/>
<path d="M104.789 119.972L2.23067e-07 22.5L0 119.972C0 119.972 27.1095 119.972 59.8791 119.972C72.0615 119.972 104.789 119.972 104.789 119.972Z" fill="#E2F700"/>
<path d="M59.8792 119.972C92.6489 119.972 119.758 119.972 119.758 119.972C120.302 121.855 119.758 29.582 119.758 29.582H95.4324C92.6916 29.582 89.7772 32.1372 89.7772 34.8952V54.8715C89.7772 57.6296 87.5554 59.8656 84.8147 59.8656H64.9646C62.2239 59.8656 60.0021 62.1014 60.0021 64.8596V84.8359C60.0021 87.594 57.7803 89.8299 55.0395 89.8299H35.1895C32.4487 89.8299 29.9396 92.7329 29.9396 95.4911V119.972C29.9396 119.972 49.0775 119.972 59.8792 119.972Z" fill="#87A0AF"/>
<path d="M60.3101 44.7069C68.4274 44.7069 75.0077 38.0848 75.0077 29.9159C75.0077 21.7471 68.4274 15.1249 60.3101 15.1249C52.1928 15.1249 45.6125 21.7471 45.6125 29.9159C45.6125 38.0848 52.1928 44.7069 60.3101 44.7069Z" fill="#FF2C00"/>
</g>
<defs>
<clipPath id="clip0_2740_19943">
<rect width="120" height="120" fill="white"/>
</clipPath>
</defs>
</svg>
